<?xml version="1.0" encoding="UTF-8" standalone="no"?>
<!-- Created with Inkscape (http://www.inkscape.org/) -->

<svg
   xmlns:dc="http://purl.org/dc/elements/1.1/"
   xmlns:cc="http://creativecommons.org/ns#"
   xmlns:rdf="http://www.w3.org/1999/02/22-rdf-syntax-ns#"
   xmlns:svg="http://www.w3.org/2000/svg"
   xmlns="http://www.w3.org/2000/svg"
   xmlns:sodipodi="http://sodipodi.sourceforge.net/DTD/sodipodi-0.dtd"
   xmlns:inkscape="http://www.inkscape.org/namespaces/inkscape"
   width="210mm"
   height="100mm"
   viewBox="0 0 744.09449 354.33071"
   id="svg2"
   version="1.1"
   inkscape:version="0.91 r13725"
   sodipodi:docname="oxygen.svg">
  <defs
     id="defs4" />
  <sodipodi:namedview
     id="base"
     pagecolor="#ffffff"
     bordercolor="#666666"
     borderopacity="1.0"
     inkscape:pageopacity="0.0"
     inkscape:pageshadow="2"
     inkscape:zoom="0.35"
     inkscape:cx="-103.18032"
     inkscape:cy="63.189537"
     inkscape:document-units="px"
     inkscape:current-layer="layer1"
     showgrid="false"
     inkscape:window-width="1365"
     inkscape:window-height="717"
     inkscape:window-x="0"
     inkscape:window-y="23"
     inkscape:window-maximized="1" />
  <metadata
     id="metadata7">
    <rdf:RDF>
      <cc:Work
         rdf:about="">
        <dc:format>image/svg+xml</dc:format>
        <dc:type
           rdf:resource="http://purl.org/dc/dcmitype/StillImage" />
        <dc:title />
      </cc:Work>
    </rdf:RDF>
  </metadata>
  <g
     inkscape:label="Layer 1"
     inkscape:groupmode="layer"
     id="layer1"
     transform="translate(0,-698.0315)">
    <g
       style="font-style:normal;font-variant:normal;font-weight:normal;font-stretch:normal;font-size:40px;line-height:125%;font-family:Aquatico;-inkscape-font-specification:Aquatico;letter-spacing:0px;word-spacing:0px;fill:#3771c8;fill-opacity:1;stroke:none;stroke-width:1px;stroke-linecap:butt;stroke-linejoin:miter;stroke-opacity:1"
       id="text4138"
       transform="translate(1370,482.57143)">
      <path
         inkscape:connector-curvature="0"
         d="m -1003.5502,425.44247 -23.3,-32.3 22,-30.4 c 1.6,-2.3 1.1,-5.4 -1.1,-7 -2.3,-1.6 -5.4,-1.1 -7,1.1 l -20,27.8 -20.1,-27.8 c -1.7,-2.2 -4.8,-2.7 -7,-1.1 -2.3,1.6 -2.8,4.7 -1.1,7 l 22,30.4 -23.3,32.3 c -1.7,2.3 -1.2,5.4 1.1,7 0.9,0.6 1.9,0.9 2.9,0.9 1.6,0 3.1,-0.7 4.1,-2 l 21.4,-29.6 21.3,29.6 c 1,1.3 2.5,2 4,2 1.1,0 2.1,-0.3 3,-0.9 2.2,-1.6 2.7,-4.7 1.1,-7 z"
         style="font-style:normal;font-variant:normal;font-weight:normal;font-stretch:normal;font-size:100px;font-family:Aquatico;-inkscape-font-specification:Aquatico;fill:#3771c8;fill-opacity:1"
         id="path4383" />
      <path
         inkscape:connector-curvature="0"
         d="m -925.19238,355.54247 c -2.3,-1.5 -5.4,-0.9 -6.9,1.4 l -22.8,34.1 -22.7,-34.1 c -1.5,-2.3 -4.6,-2.9 -6.9,-1.4 -2.3,1.6 -2.9,4.7 -1.4,7 l 26,39 0,26.8 c 0,2.7 2.3,5 5,5 2.8,0 5,-2.3 5,-5 l 0,-26.8 26.1,-39 c 1.5,-2.3 0.9,-5.4 -1.4,-7 z"
         style="font-style:normal;font-variant:normal;font-weight:normal;font-stretch:normal;font-size:100px;font-family:Aquatico;-inkscape-font-specification:Aquatico;fill:#3771c8;fill-opacity:1"
         id="path4385" />
      <path
         inkscape:connector-curvature="0"
         d="m -865.90488,435.14247 c -5.6,0 -11,-1.1 -16,-3.3 -4.9,-2 -9.3,-5 -13.1,-8.8 -3.8,-3.7 -6.7,-8.1 -8.8,-12.9 -2.2,-5.1 -3.2,-10.4 -3.2,-15.8 0,-5.5 1.1,-10.8 3.2,-15.8 2.1,-4.8 5.1,-9.2 8.9,-12.9 3.8,-3.8 8.3,-6.7 13.2,-8.8 5.1,-2.1 10.5,-3.2 16,-3.2 8.5,0 16.5,2.6 23.3,7.4 2.3,1.6 2.8,4.7 1.2,7 -1.6,2.2 -4.7,2.8 -7,1.2 -5.1,-3.7 -11.1,-5.6 -17.5,-5.6 -4.2,0 -8.3,0.8 -12.2,2.5 -3.7,1.5 -7.1,3.8 -9.9,6.6 -2.9,2.9 -5.2,6.1 -6.8,9.8 -1.6,3.8 -2.4,7.7 -2.4,11.8 0,4.1 0.8,8.1 2.4,11.8 1.6,3.7 3.8,7 6.7,9.8 5.9,5.9 13.7,9.2 22,9.2 4.4,0 8.7,-0.9 12.6,-2.7 3.2,-1.5 6.2,-3.5 8.7,-6 l 0,-20.8 c 0,-2.8 2.2,-5 5,-5 2.8,0 5,2.2 5,5 l 0,22.9 c 0,1.2 -0.5,2.4 -1.3,3.3 -3.8,4.1 -8.2,7.4 -13.3,9.7 -5.2,2.4 -10.9,3.6 -16.7,3.6 z"
         style="font-style:normal;font-variant:normal;font-weight:normal;font-stretch:normal;font-size:100px;font-family:Aquatico;-inkscape-font-specification:Aquatico;fill:#3771c8;fill-opacity:1"
         id="path4387" />
      <path
         inkscape:connector-curvature="0"
         d="m -765.72832,423.24247 -42.8,0 0,-24.4 37,0 c 2.8,0 5,-2.2 5,-5 0,-2.7 -2.2,-5 -5,-5 l -37,0 0,-24.1 41.8,0 c 2.8,0 5,-2.2 5,-5 0,-2.8 -2.2,-5 -5,-5 l -46.8,0 c -2.7,0 -5,2.2 -5,5 l 0,68.5 c 0,2.8 2.3,5 5,5 l 47.8,0 c 2.8,0 5,-2.2 5,-5 0,-2.8 -2.2,-5 -5,-5 z"
         style="font-style:normal;font-variant:normal;font-weight:normal;font-stretch:normal;font-size:100px;font-family:Aquatico;-inkscape-font-specification:Aquatico;fill:#3771c8;fill-opacity:1"
         id="path4389" />
      <path
         inkscape:connector-curvature="0"
         d="m -682.5002,433.64247 c -1.5,0 -2.9,-0.7 -3.9,-1.8 l -48.3,-58.1 0,54.8 c 0,2.8 -2.2,5 -5,5 -2.8,0 -5,-2.2 -5,-5 l 0,-68.6 c 0,-2.1 1.3,-4 3.3,-4.7 2,-0.7 4.2,-0.1 5.5,1.5 l 48.4,58 0,-54.7 c 0,-2.8 2.2,-5 5,-5 2.7,0 5,2.2 5,5 l 0,68.6 c 0,2.1 -1.4,3.9 -3.3,4.7 -0.6,0.2 -1.2,0.3 -1.7,0.3 z"
         style="font-style:normal;font-variant:normal;font-weight:normal;font-stretch:normal;font-size:100px;font-family:Aquatico;-inkscape-font-specification:Aquatico;fill:#3771c8;fill-opacity:1"
         id="path4391" />
    </g>
    <circle
       style="opacity:1;fill:#3771c8;fill-opacity:1;stroke:none;stroke-width:8;stroke-linecap:butt;stroke-linejoin:round;stroke-miterlimit:4;stroke-dasharray:none;stroke-opacity:1"
       id="path4136"
       cx="185.6925"
       cy="878.28534"
       r="41.428574" />
    <g
       id="g4166">
      <ellipse
         transform="matrix(0.71762321,0.69643157,-0.69494909,0.71905895,0,0)"
         ry="65.916946"
         rx="117.89021"
         cy="502.31284"
         cx="746.00494"
         id="path4146-7-6"
         style="opacity:1;fill:none;fill-opacity:1;stroke:#3771c8;stroke-width:8.00000858;stroke-linecap:butt;stroke-linejoin:round;stroke-miterlimit:4;stroke-dasharray:none;stroke-opacity:1" />
      <g
         transform="translate(1370,488.57143)"
         id="g4413">
        <path
           style="opacity:1;fill:none;fill-opacity:1;stroke:#3771c8;stroke-width:7.74138737;stroke-linecap:round;stroke-linejoin:round;stroke-miterlimit:4;stroke-dasharray:none;stroke-opacity:1"
           d="m -1172.174,306.10829 a 56.446713,147.27448 43.788701 0 1 102.5604,-32.52934 l 0,0 a 56.446713,147.27448 43.788701 0 1 -22.633,99.9305"
           id="path4336"
           inkscape:connector-curvature="0" />
        <path
           style="opacity:1;fill:none;fill-opacity:1;stroke:#3771c8;stroke-width:7.74138737;stroke-linecap:round;stroke-linejoin:round;stroke-miterlimit:4;stroke-dasharray:none;stroke-opacity:1"
           d="m -1205.5268,482.7346 a 56.446713,147.27448 43.788701 0 1 -101.1091,31.4086 56.446713,147.27448 43.788701 0 1 22.2276,-99.33233"
           id="path4332"
           inkscape:connector-curvature="0" />
        <path
           style="fill:none;fill-rule:evenodd;stroke:#3771c8;stroke-width:7.74138737;stroke-linecap:round;stroke-linejoin:miter;stroke-miterlimit:4;stroke-dasharray:none;stroke-opacity:1"
           d="m -1169.6771,304.76517 c 0,0 -80.0169,51.52079 -116.7416,113.6177"
           id="path4345"
           inkscape:connector-curvature="0" />
      </g>
    </g>
  </g>
</svg>
